#!OML:ASF H:\Terrain\Patient Classification 1\Terrain2\Thursday\justin.ASF
:FULLY-SPECIFIED
:DEGREES
3503
root 28.9954 17.4803 -6.12957 178.542 181.693 -546.074
lowerback 6.27054 -1.00432 3.59429
upperback 3.4707 -1.12418 4.78985
thorax 0.0969693 -0.559834 2.99369
lowerneck -10.346 -2.95407 -10.6708
upperneck 39.1412 -3.41865 4.47026
head 15.9296 -2.4428 3.29874
rclavicle -1.6201e-014 4.92986e-014
rhumerus -35.1846 -17.8398 -71.2642
rradius 27.5146
rwrist -9.32231
rhand -20.2689 13.4576
rfingers 7.12502
rthumb 6.08022 -16.4352
lclavicle -1.6201e-014 4.92986e-014
lhumerus -35.6753 14.9896 81.5298
lradius 23.3756
lwrist -1.35353
lhand -14.2606 24.8884
lfingers 7.12502
lthumb 11.8778 54.5315
rfemur 11.985 6.22927 25.2775
rtibia 23.8586
rfoot -13.4554 16.1682
rtoes 13.9259
lfemur -24.4073 -3.04129 -7.56166
ltibia 28.3587
lfoot -4.3264 -9.00034
ltoes -9.75772
3504
root 29.038 17.5041 -6.0493 178.572 181.954 -545.912
lowerback 6.202 -0.971151 3.38529
upperback 3.54599 -1.1012 4.70894
thorax 0.213934 -0.549948 3.02323
lowerneck -10.581 -2.96296 -10.6514
upperneck 39.2903 -3.42522 4.49558
head 16.0656 -2.44312 3.30905
rclavicle 8.64713e-015 -1.98785e-014
rhumerus -35.1552 -17.8 -71.4232
rradius 27.743
rwrist -9.67179
rhand -20.0236 13.4012
rfingers 7.12502
rthumb 6.31705 -16.4846
lclavicle 8.64713e-015 -1.98785e-014
lhumerus -35.6809 15.1537 81.2791
lradius 23.4051
lwrist -1.95255
lhand -14.342 24.6202
lfingers 7.12502
lthumb 11.7993 54.2678
rfemur 11.4149 6.22437 24.9224
rtibia 25.2598
rfoot -12.6869 16.0854
rtoes 11.6593
lfemur -23.9201 -2.66876 -7.92607
ltibia 28.1395
lfoot -4.60279 -9.07791
ltoes -11.0883
3505
root 29.0843 17.5283 -5.96552 178.59 182.183 -545.917
lowerback 6.09632 -0.884691 3.48371
upperback 3.60718 -0.992445 4.57373
thorax 0.328555 -0.491956 2.81844
lowerneck -10.6884 -2.94949 -10.3148
upperneck 39.3288 -3.47202 4.45791
head 16.1029 -2.41815 3.22522
rclavicle 1.22253e-014 1.35174e-014
rhumerus -35.2627 -17.8409 -71.6896
rradius 28.0168
rwrist -10.181
rhand -19.863 13.224
rfingers 7.12502
rthumb 6.47203 -16.6571
lclavicle 1.22253e-014 1.35174e-014
lhumerus -35.7076 14.8852 81.0765
lradius 23.5554
lwrist -2.53695
lhand -13.9827 25.0005
lfingers 7.12502
lthumb 12.1458 54.628
rfemur 10.7634 6.10081 24.7062
rtibia 26.8376
rfoot -11.731 16.1956
rtoes 10.806
lfemur -23.4236 -2.3581 -8.10529
ltibia 27.8552
lfoot -4.72332 -9.20743
ltoes -11.111
3506
root 29.1306 17.5536 -5.88409 178.594 182.376 -545.724
lowerback 6.07807 -0.814429 3.28751
upperback 3.59307 -0.909579 4.47392
thorax 0.322695 -0.45248 2.81966
lowerneck -10.8095 -2.90971 -10.028
upperneck 39.4743 -3.41319 4.28336
head 16.1893 -2.37687 3.10992
rclavicle 1.49089e-015 3.33958e-014
rhumerus -35.5193 -17.8569 -71.7059
rradius 28.2715
rwrist -10.3907
rhand -19.7407 13.3061
rfingers 7.12502
rthumb 6.59016 -16.5713
lclavicle 1.49089e-015 3.33958e-014
lhumerus -35.7312 14.7729 80.9252
lradius 23.5236
lwrist -3.18224
lhand -13.0872 25.4285
lfingers 7.12502
lthumb 13.0091 55.0028
rfemur 10.0067 5.96755 24.264
rtibia 28.5546
rfoot -10.4124 16.3434
rtoes 11.8952
lfemur -22.9166 -2.18647 -8.48369
ltibia 27.5544
lfoot -4.78811 -9.29909
ltoes -10.4167
3507
root 29.1762 17.5828 -5.80748 178.763 182.662 -545.56
lowerback 5.9996 -0.732948 3.07625
upperback 3.54299 -0.814162 4.42938
thorax 0.313719 -0.40758 2.88546
lowerneck -10.8096 -2.9096 -10.1034
upperneck 39.4648 -3.42327 4.35974
head 16.1893 -2.38278 3.15537
rclavicle 2.98177e-015 6.36111e-015
rhumerus -35.7224 -17.8219 -71.6517
rradius 28.5529
rwrist -10.3058
rhand -19.7677 13.2297
rfingers 7.12502
rthumb 6.56404 -16.6485
lclavicle 2.98177e-015 6.36111e-015
lhumerus -35.7241 14.1616 81.2451
lradius 23.5738
lwrist -1.95995
lhand -13.5328 25.3392
lfingers 7.12502
lthumb 12.5795 54.9405
rfemur 8.94135 5.95249 23.8554
rtibia 30.4089
rfoot -8.91218 16.3863
rtoes 13.4933
lfemur -22.5138 -1.97205 -8.80737
ltibia 27.1723
lfoot -4.96833 -9.28081
ltoes -9.26764
